<svg width="142" height="326" viewBox="0 0 142 326" fill="none" xmlns="http://www.w3.org/2000/svg">
    <path fill-rule="evenodd" clip-rule="evenodd" d="M74.4891 185.938C63.7216 186.494 57.811 179.732 49.4732 180.587C45.8333 180.96 42.7303 182.213 40.3891 183.506L13.3953 284.248C13.3953 284.248 7.12075 307.666 28.1962 313.313C49.2715 318.96 55.5461 295.543 55.5461 295.543L85.6378 183.239C83.0415 184.485 79.3443 185.687 74.4891 185.938ZM48.1528 222.722C49.2701 219.23 53.0206 211.4 63.8421 213.381C64.2435 213.454 64.6324 213.199 64.7268 212.803C64.813 212.409 64.5809 212.007 64.1902 211.895C63.7165 211.76 52.6519 208.425 55.2855 196.218C55.3802 195.807 55.148 195.405 54.7063 195.31C54.2954 195.216 53.8893 195.477 53.7956 195.885C53.6939 196.336 51.1331 206.902 38.243 204.946C37.846 204.886 37.468 205.144 37.3817 205.538C37.2955 205.932 37.5305 206.323 37.913 206.437C38.3903 206.573 49.5111 209.958 46.6776 222.319C46.3912 223.216 46.2884 223.787 46.2884 223.787C46.2149 224.176 46.46 224.559 46.8418 224.661L46.8671 224.668C47.2591 224.761 47.6601 224.533 47.7715 224.145C47.9244 223.661 48.0437 223.187 48.1528 222.722Z" fill="black"/>
    <path fill-rule="evenodd" clip-rule="evenodd" d="M66.354 298.439C54.2392 343.652 -9.88456 327.898 2.5874 281.352L58.3831 73.1202L50.0971 70.9C50.0971 70.9 49.7368 70.8035 49.4731 70.3467C49.2093 69.8899 49.3059 69.5296 49.3059 69.5296L55.0013 48.2741C55.0013 48.2741 55.0978 47.9138 55.5546 47.6501C56.0114 47.3864 56.3717 47.4829 56.3717 47.4829L136.71 69.0096C136.71 69.0096 137.071 69.1061 137.334 69.5629C137.598 70.0197 137.502 70.38 137.502 70.38L131.806 91.6355C131.806 91.6355 131.71 91.9958 131.253 92.2595C130.796 92.5232 130.436 92.4267 130.436 92.4267L122.15 90.2064L66.354 298.439ZM114.944 88.2758L65.5883 75.0509L35.6151 186.913L9.79267 283.283C9.79267 283.283 2.5528 310.303 27.2308 316.915C51.9088 323.528 59.1487 296.508 59.1487 296.508L90.3287 180.143L114.944 88.2758Z" fill="black"/>
    <path d="M78.1884 1.12798C77.8125 1.49804 77.6996 1.87014 77.6996 1.87014L73.3449 45.2888C73.3449 45.2888 73.1796 45.6605 73.5482 46.2229C73.9168 46.7852 74.2891 46.8778 74.2891 46.8778L121.187 59.4442C121.187 59.4442 121.745 59.6178 122.306 59.4529C122.867 59.288 123.058 58.7344 123.058 58.7344L141.077 18.7745C141.077 18.7745 141.275 18.403 141.085 17.8421C140.894 17.2811 140.351 17.2783 140.351 17.2783L79.3089 0.922105C79.3089 0.922105 78.5642 0.757918 78.1884 1.12798Z" fill="black"/>
</svg>
