<svg width="269" height="292" viewBox="0 0 269 292" fill="none" xmlns="http://www.w3.org/2000/svg">
    <path d="M134.542 101.978C144.387 101.978 166.654 116.724 190.156 144.908C212.502 171.702 226.938 199.738 226.938 216.346C226.938 252.692 185.491 282.263 134.542 282.263C83.5923 282.263 42.1459 252.697 42.1459 216.346C42.1459 200.133 57.0553 172.118 80.1372 144.976C103.887 117.05 125.891 101.978 134.542 101.978ZM134.542 92.9641C106.374 92.9641 33.1318 174.963 33.1318 216.346C33.1318 257.73 78.5331 291.277 134.542 291.277C190.551 291.277 235.952 257.73 235.952 216.346C235.952 174.963 166.091 92.9641 134.542 92.9641Z" fill="black"/>
    <path d="M135.667 86.3901C117.319 86.3901 86.5322 84.8177 86.5322 74.2786C86.5322 63.7394 117.319 62.167 135.667 62.167C154.016 62.167 184.797 63.7394 184.797 74.2786C184.797 84.8177 154.016 86.3901 135.667 86.3901ZM98.0389 74.2786C104.118 76.0351 116.819 77.9651 135.667 77.9651C154.516 77.9651 167.216 76.0351 173.296 74.2786C167.216 72.5273 154.516 70.592 135.667 70.592C116.819 70.592 104.118 72.5273 98.0389 74.2786Z" fill="black"/>
    <path d="M86.0903 83.3137V120.569C86.0903 125.239 108.289 129.02 135.667 129.02C163.046 129.02 185.244 125.239 185.244 120.569V83.3137C175.394 89.1039 151.408 90.1452 135.667 90.1452C119.927 90.1452 95.9405 89.0987 86.0903 83.3137Z" fill="black"/>
    <path d="M173.979 6.53172C173.979 10.1394 156.829 13.0634 135.672 13.0634C114.515 13.0634 97.3604 10.1394 97.3604 6.53172C97.3604 2.92402 114.515 0 135.672 0C156.829 0 173.979 2.92402 173.979 6.53172Z" fill="black"/>
    <path d="M97.3555 6.53174L110.009 70.0924C110.987 74.184 114.505 76.6242 135.667 76.6242C156.83 76.6242 163.914 73.7001 163.914 70.0924L173.974 6.53174H97.3555Z" fill="black"/>
    <path d="M188.952 169.583H80.8102C69.8556 184.808 61.8408 200.816 61.8408 212.392C61.8408 242.058 94.389 266.107 134.542 266.107C174.694 266.107 207.243 242.058 207.243 212.392C207.243 200.816 199.601 184.808 188.957 169.583H188.952ZM111.47 203.004C96.0087 204.256 93.7579 216.288 93.5107 221.453C93.5317 222.126 93.5423 222.815 93.5107 223.53C93.5002 224.098 93.0374 224.556 92.4694 224.571C92.4642 224.571 92.4484 224.571 92.4326 224.571C91.8751 224.571 91.4018 224.14 91.3597 223.583C91.3597 223.583 91.2913 222.768 91.3545 221.442C90.7023 203.572 74.3205 203.02 73.621 203.009C73.0583 202.994 72.5955 202.547 72.5692 201.979C72.5429 201.411 72.9637 200.922 73.5264 200.858C91.7963 198.818 91.4281 183.493 91.4018 182.841C91.3808 182.252 91.8383 181.747 92.4326 181.726C93.0689 181.695 93.5318 182.157 93.5528 182.752C94.4206 200.338 110.708 200.843 111.402 200.853C111.975 200.864 112.438 201.327 112.464 201.895C112.48 202.468 112.043 202.957 111.47 203.004Z" fill="black"/>
    <path d="M225.666 120.921C236.223 94.3788 229.829 70.5185 205.866 47.0263M235.973 159.387C268.904 109.335 250.307 33.5685 195.636 8.84985" stroke="black" stroke-width="10"/>
    <path d="M63.0569 47.3153C40.6432 65.0231 34.2499 88.8834 43.2569 121.21M73.3637 8.8496C19.8191 35.7298 -1.95904 110.644 33.0275 159.386" stroke="black" stroke-width="10"/>
</svg>
