<svg width="259" height="339" viewBox="0 0 259 339" fill="none" xmlns="http://www.w3.org/2000/svg">
    <path d="M128.505 79.1802C111.451 79.1802 26.4043 81.182 26.4043 120.62C26.4043 160.057 111.451 162.065 128.505 162.065C145.558 162.065 230.594 160.068 230.594 120.62C230.594 81.1713 145.552 79.1802 128.505 79.1802ZM128.505 141.789C84.3619 141.789 48.5853 130.559 48.5853 116.712C48.5853 102.865 84.3619 91.6303 128.505 91.6303C172.647 91.6303 208.418 102.86 208.418 116.712C208.418 130.565 172.636 141.789 128.505 141.789Z" fill="black"/>
    <path d="M128.135 266.857C74.1972 266.857 28.01 258.181 0 251.351C2.28555 261.874 6.67462 272.852 13.9541 284.082C40.9899 320.367 81.8782 336.221 127.969 338.464V338.512C128.087 338.512 128.205 338.496 128.322 338.491C128.446 338.491 128.558 338.507 128.676 338.512V338.464C176.881 338.865 223.475 318.949 244.462 284.799C252.716 271.899 257.191 259.364 259 247.486C213.974 261.906 168.847 266.863 128.13 266.863L128.135 266.857Z" fill="black"/>
    <path d="M252.828 199.977C245.345 181.799 233.618 167.824 225.616 160.293C219.118 154.175 214.424 148.218 211.052 143.063C184.872 156.819 140.333 157.799 128.504 157.799C116.675 157.799 71.8366 156.819 45.6947 142.918C42.3065 148.1 37.5802 154.121 31.0286 160.293C22.4913 168.327 10.0894 183.7 3.1792 203.611C43.4894 214.076 151.135 235.534 252.834 199.971L252.828 199.977Z" fill="black"/>
    <path d="M39.1271 252.973L32.1366 250.125L39.4375 232.216L26.6931 221.12L12.4178 225.937L14.4732 240.02L24.3487 242.482L27.5977 236.862C26.404 235.695 25.2425 234.629 24.3005 233.843C23.8241 234.774 23.3049 235.898 22.8767 236.953L15.897 234.094C18.6321 227.404 20.361 226.247 20.9284 225.867C23.5565 224.106 26.7145 224.829 35.0431 233.687L36.9593 235.732L28.0366 251.18L7.7343 246.111L4.04102 220.798L28.3738 212.582L48.4566 230.064L39.1164 252.973H39.1271Z" fill="black"/>
    <path d="M115.546 252.871L108.068 253.867L105.526 234.683L88.9544 231.37L78.9504 242.632L87.7126 253.84L97.5131 251.089L97.5506 244.596C95.9448 244.173 94.3979 243.82 93.1883 243.606C93.2418 244.644 93.3435 245.881 93.4987 247.01L86.0158 247.984C85.0738 240.817 86.0051 238.96 86.3102 238.35C87.7233 235.513 90.8277 234.581 102.448 238.152L105.124 238.976L105.033 256.811L84.8864 262.463L69.1338 242.316L86.1924 223.116L112.302 228.34L115.546 252.866V252.871Z" fill="black"/>
    <path d="M175.692 261.355L169.173 257.555L178.931 240.844L167.878 228.067L153.067 230.824L153.115 245.051L162.541 248.889L166.556 243.782C165.544 242.466 164.538 241.24 163.719 240.325C163.119 241.186 162.439 242.225 161.877 243.199L155.358 239.388C159.014 233.147 160.887 232.253 161.503 231.959C164.35 230.588 167.38 231.755 174.37 241.7L175.981 243.991L164.971 258.02L145.59 250.131L145.504 224.556L170.752 219.851L188.175 239.993L175.692 261.355Z" fill="black"/>
    <path d="M246.122 249.617L239.607 245.816L249.36 229.106L238.307 216.329L223.502 219.08L223.544 233.308L232.976 237.145L236.985 232.044C235.973 230.728 234.967 229.502 234.148 228.587C233.548 229.448 232.869 230.487 232.301 231.461L225.787 227.645C229.443 221.409 231.316 220.515 231.932 220.221C234.779 218.85 237.809 220.012 244.8 229.957L246.405 232.248L235.4 246.282L216.013 238.387L215.928 212.818L241.17 208.113L258.593 228.255L246.111 249.612L246.122 249.617Z" fill="black"/>
    <path d="M116.761 115.471C116.761 125.485 108.647 133.616 98.6159 133.616C88.5852 133.616 80.4761 125.491 80.4761 115.471C80.4761 105.451 88.5906 97.3308 98.6159 97.3308C108.641 97.3308 116.761 105.451 116.761 115.471Z" fill="black"/>
    <path d="M129.42 57.331C129.42 67.351 121.3 75.4709 111.275 75.4709C101.249 75.4709 93.1348 67.351 93.1348 57.331C93.1348 47.311 101.255 39.1858 111.275 39.1858C121.295 39.1858 129.42 47.3056 129.42 57.331Z" fill="black"/>
    <path d="M74.2934 33.2445C74.2934 43.2645 66.1735 51.3844 56.1481 51.3844C46.1228 51.3844 38.0029 43.2645 38.0029 33.2445C38.0029 23.2245 46.1228 15.0994 56.1481 15.0994C66.1735 15.0994 74.2934 23.2192 74.2934 33.2445Z" fill="black"/>
    <line x1="170.21" y1="149.988" x2="210.89" y2="3.32721" stroke="black" stroke-width="20"/>
</svg>
