<svg width="478" height="849" viewBox="0 0 478 849" fill="none" xmlns="http://www.w3.org/2000/svg">
    <path fill-rule="evenodd" clip-rule="evenodd" d="M203 101C274.833 246.833 406 534.5 406 643C406 751.5 331 852 203 848C75.0001 852 -6.41942e-05 749 0 643C6.41942e-05 537 203 101 203 101ZM123.347 545.638C122.306 567.395 112.824 618.086 47.6873 623.359C45.2724 623.558 43.4332 625.619 43.4997 628.034C43.6105 630.426 45.5602 632.376 47.9751 632.42C50.8996 632.464 119.514 634.591 123.17 708.679C123.259 711.182 125.209 713.132 127.889 712.999C130.393 712.91 132.32 710.783 132.232 708.302C132.121 705.555 130.57 640.994 207.537 632.398C209.908 632.132 211.681 630.072 211.57 627.679C211.459 625.286 209.509 623.403 207.139 623.337C204.192 623.292 135.179 620.966 132.431 545.682C132.697 540.099 132.409 536.665 132.409 536.665C132.232 534.317 130.238 532.5 127.889 532.5H127.734C125.341 532.566 123.392 534.494 123.347 536.887C123.214 539.9 123.259 542.802 123.347 545.638Z" fill="black"/>
    <path fill-rule="evenodd" clip-rule="evenodd" d="M72.9997 34C87.5079 63.2793 114 121.035 114 142.819C114 164.602 98.8519 184.78 72.9997 183.977C47.1475 184.78 31.9997 164.1 31.9998 142.819C31.9998 121.537 72.9997 34 72.9997 34ZM56.9123 123.271C56.7019 127.639 54.7868 137.816 41.6312 138.875C41.1434 138.915 40.772 139.329 40.7854 139.814C40.8078 140.294 41.2016 140.685 41.6893 140.694C42.28 140.703 56.1381 141.13 56.8764 156.005C56.8943 156.508 57.2882 156.899 57.8296 156.872C58.3352 156.855 58.7245 156.428 58.7066 155.929C58.6842 155.378 58.371 142.416 73.9161 140.69C74.3949 140.637 74.7529 140.223 74.7306 139.742C74.7082 139.262 74.3144 138.884 73.8356 138.871C73.2405 138.862 59.3018 138.395 58.7469 123.28C58.8006 122.159 58.7425 121.469 58.7425 121.469C58.7067 120.998 58.3039 120.633 57.8296 120.633H57.7982C57.315 120.647 56.9212 121.034 56.9123 121.514C56.8854 122.119 56.8944 122.702 56.9123 123.271Z" fill="black"/>
    <path d="M41.6312 138.875C54.7868 137.816 56.7019 127.639 56.9123 123.271C56.8944 122.702 56.8854 122.119 56.9123 121.514C56.9212 121.034 57.315 120.647 57.7982 120.633H57.8296C58.3039 120.633 58.7067 120.998 58.7425 121.469C58.7425 121.469 58.8006 122.159 58.7469 123.28C59.3018 138.395 73.2405 138.862 73.8356 138.871C74.3144 138.884 74.7082 139.262 74.7306 139.742C74.7529 140.223 74.3949 140.637 73.9161 140.69C58.371 142.416 58.6842 155.378 58.7066 155.929C58.7245 156.428 58.3352 156.855 57.8296 156.872C57.2882 156.899 56.8943 156.508 56.8764 156.005C56.1381 141.13 42.28 140.703 41.6893 140.694C41.2016 140.685 40.8078 140.294 40.7854 139.814C40.772 139.329 41.1434 138.915 41.6312 138.875Z" fill="black"/>
    <path fill-rule="evenodd" clip-rule="evenodd" d="M397.5 0C425.985 57.7778 478 171.749 478 214.735C478 257.722 448.258 297.539 397.5 295.954C346.741 297.539 317 256.731 317 214.735C317 172.739 397.5 0 397.5 0ZM365.913 176.161C365.5 184.781 361.74 204.864 335.91 206.953C334.953 207.032 334.223 207.849 334.25 208.806C334.294 209.754 335.067 210.526 336.024 210.544C337.184 210.561 364.393 211.404 365.843 240.756C365.878 241.748 366.651 242.521 367.714 242.468C368.707 242.433 369.472 241.59 369.436 240.607C369.392 239.519 368.777 213.941 399.299 210.535C400.239 210.429 400.942 209.613 400.898 208.665C400.854 207.717 400.081 206.971 399.141 206.945C397.972 206.927 370.605 206.005 369.516 176.179C369.621 173.967 369.507 172.606 369.507 172.606C369.436 171.676 368.646 170.956 367.714 170.956H367.653C366.704 170.982 365.931 171.746 365.913 172.694C365.861 173.888 365.878 175.038 365.913 176.161Z" fill="black"/>
    <path d="M335.91 206.953C361.74 204.864 365.5 184.781 365.913 176.161C365.878 175.038 365.861 173.888 365.913 172.694C365.931 171.746 366.704 170.982 367.653 170.956H367.714C368.646 170.956 369.436 171.676 369.507 172.606C369.507 172.606 369.621 173.967 369.516 176.179C370.605 206.005 397.972 206.927 399.141 206.945C400.081 206.971 400.854 207.717 400.898 208.665C400.942 209.613 400.239 210.429 399.299 210.535C368.777 213.941 369.392 239.519 369.436 240.607C369.472 241.59 368.707 242.433 367.714 242.468C366.651 242.521 365.878 241.748 365.843 240.756C364.393 211.404 337.184 210.561 336.024 210.544C335.067 210.526 334.294 209.754 334.25 208.806C334.223 207.849 334.953 207.032 335.91 206.953Z" fill="black"/>
</svg>
